<?xml version="1.0" encoding="UTF-8" standalone="no"?>
<!-- Created with Inkscape (http://www.inkscape.org/) -->

<svg
   version="1.1"
   id="svg1"
   width="1122.52"
   height="793.70135"
   viewBox="0 0 1122.52 793.70135"
   sodipodi:docname="upload_rtqgmecueyyzt5gtbtynctrf65.pdf"
   xmlns:inkscape="http://www.inkscape.org/namespaces/inkscape"
   xmlns:sodipodi="http://sodipodi.sourceforge.net/DTD/sodipodi-0.dtd"
   xmlns="http://www.w3.org/2000/svg"
   xmlns:svg="http://www.w3.org/2000/svg">
  <defs
     id="defs1">
    <clipPath
       clipPathUnits="userSpaceOnUse"
       id="clipPath6">
      <path
         d="M 0,595.276 H 841.89 V 0 H 0 Z"
         transform="translate(-180.4057,-278.5793)"
         id="path6" />
    </clipPath>
    <clipPath
       clipPathUnits="userSpaceOnUse"
       id="clipPath8">
      <path
         d="M 0,595.276 H 841.89 V 0 H 0 Z"
         transform="translate(-146.61891,-258.98471)"
         id="path8" />
    </clipPath>
    <clipPath
       clipPathUnits="userSpaceOnUse"
       id="clipPath10">
      <path
         d="M 0,595.276 H 841.89 V 0 H 0 Z"
         transform="translate(-333.16711,-313.19021)"
         id="path10" />
    </clipPath>
    <clipPath
       clipPathUnits="userSpaceOnUse"
       id="clipPath12">
      <path
         d="M 0,595.276 H 841.89 V 0 H 0 Z"
         transform="translate(-520.22161,-314.14041)"
         id="path12" />
    </clipPath>
    <linearGradient
       x1="0"
       y1="0"
       x2="1"
       y2="0"
       gradientUnits="userSpaceOnUse"
       gradientTransform="matrix(0,96.617622,96.617622,0,426.72235,356.92566)"
       spreadMethod="pad"
       id="linearGradient14">
      <stop
         style="stop-opacity:1;stop-color:#94989a"
         offset="0"
         id="stop12" />
      <stop
         style="stop-opacity:1;stop-color:#424a52"
         offset="0.20091254"
         id="stop13" />
      <stop
         style="stop-opacity:1;stop-color:#424a52"
         offset="1"
         id="stop14" />
    </linearGradient>
    <linearGradient
       x1="0"
       y1="0"
       x2="1"
       y2="0"
       gradientUnits="userSpaceOnUse"
       gradientTransform="matrix(0,32.415089,32.415089,0,425.54855,278.57935)"
       spreadMethod="pad"
       id="linearGradient17">
      <stop
         style="stop-opacity:1;stop-color:#f46f80"
         offset="0"
         id="stop15" />
      <stop
         style="stop-opacity:1;stop-color:#b4131d"
         offset="0.20091254"
         id="stop16" />
      <stop
         style="stop-opacity:1;stop-color:#b4131d"
         offset="1"
         id="stop17" />
    </linearGradient>
    <linearGradient
       x1="0"
       y1="0"
       x2="1"
       y2="0"
       gradientUnits="userSpaceOnUse"
       gradientTransform="matrix(0,32.414364,32.414364,0,420.94489,258.98471)"
       spreadMethod="pad"
       id="linearGradient20">
      <stop
         style="stop-opacity:1;stop-color:#94989a"
         offset="0"
         id="stop18" />
      <stop
         style="stop-opacity:1;stop-color:#424a52"
         offset="0.69067451"
         id="stop19" />
      <stop
         style="stop-opacity:1;stop-color:#424a52"
         offset="1"
         id="stop20" />
    </linearGradient>
    <linearGradient
       x1="0"
       y1="0"
       x2="1"
       y2="0"
       gradientUnits="userSpaceOnUse"
       gradientTransform="matrix(0,93.290359,93.290359,0,426.72235,337.34143)"
       spreadMethod="pad"
       id="linearGradient23">
      <stop
         style="stop-opacity:1;stop-color:#f46f80"
         offset="0"
         id="stop21" />
      <stop
         style="stop-opacity:1;stop-color:#b4131d"
         offset="0.20091254"
         id="stop22" />
      <stop
         style="stop-opacity:1;stop-color:#b4131d"
         offset="1"
         id="stop23" />
    </linearGradient>
    <linearGradient
       x1="0"
       y1="0"
       x2="1"
       y2="0"
       gradientUnits="userSpaceOnUse"
       gradientTransform="matrix(0,23.852282,23.852282,0,426.65353,346.22604)"
       spreadMethod="pad"
       id="linearGradient26">
      <stop
         style="stop-opacity:1;stop-color:#94989a"
         offset="0"
         id="stop24" />
      <stop
         style="stop-opacity:1;stop-color:#424a52"
         offset="0.20091254"
         id="stop25" />
      <stop
         style="stop-opacity:1;stop-color:#424a52"
         offset="1"
         id="stop26" />
    </linearGradient>
    <clipPath
       clipPathUnits="userSpaceOnUse"
       id="clipPath28">
      <path
         d="M 0,595.276 H 841.89 V 0 H 0 Z"
         transform="translate(-85.071805,-233.684)"
         id="path28" />
    </clipPath>
    <clipPath
       clipPathUnits="userSpaceOnUse"
       id="clipPath30">
      <path
         d="M 0,595.276 H 841.89 V 0 H 0 Z"
         transform="translate(-144.4171,-204.1151)"
         id="path30" />
    </clipPath>
    <clipPath
       clipPathUnits="userSpaceOnUse"
       id="clipPath32">
      <path
         d="M 0,595.276 H 841.89 V 0 H 0 Z"
         transform="translate(-166.8753,-178.1438)"
         id="path32" />
    </clipPath>
    <clipPath
       clipPathUnits="userSpaceOnUse"
       id="clipPath34">
      <path
         d="M 0,595.276 H 841.89 V 0 H 0 Z"
         transform="translate(-221.24361,-189.8957)"
         id="path34" />
    </clipPath>
    <clipPath
       clipPathUnits="userSpaceOnUse"
       id="clipPath36">
      <path
         d="M 0,595.276 H 841.89 V 0 H 0 Z"
         transform="translate(-340.89711,-204.1151)"
         id="path36" />
    </clipPath>
    <clipPath
       clipPathUnits="userSpaceOnUse"
       id="clipPath38">
      <path
         d="M 0,595.276 H 841.89 V 0 H 0 Z"
         id="path38" />
    </clipPath>
    <clipPath
       clipPathUnits="userSpaceOnUse"
       id="clipPath40">
      <path
         d="M 0,595.276 H 841.89 V 0 H 0 Z"
         transform="translate(-389.03451,-196.0019)"
         id="path40" />
    </clipPath>
    <clipPath
       clipPathUnits="userSpaceOnUse"
       id="clipPath42">
      <path
         d="M 0,595.276 H 841.89 V 0 H 0 Z"
         transform="translate(-462.18151,-177.30721)"
         id="path42" />
    </clipPath>
    <clipPath
       clipPathUnits="userSpaceOnUse"
       id="clipPath44">
      <path
         d="M 0,595.276 H 841.89 V 0 H 0 Z"
         transform="translate(-502.37212,-233.53771)"
         id="path44" />
    </clipPath>
    <clipPath
       clipPathUnits="userSpaceOnUse"
       id="clipPath46">
      <path
         d="M 0,595.276 H 841.89 V 0 H 0 Z"
         transform="translate(-610.94392,-204.1151)"
         id="path46" />
    </clipPath>
    <clipPath
       clipPathUnits="userSpaceOnUse"
       id="clipPath48">
      <path
         d="M 0,595.276 H 841.89 V 0 H 0 Z"
         transform="translate(-657.95162,-226.49081)"
         id="path48" />
    </clipPath>
    <clipPath
       clipPathUnits="userSpaceOnUse"
       id="clipPath50">
      <path
         d="M 0,595.276 H 841.89 V 0 H 0 Z"
         transform="translate(-711.65082,-233.684)"
         id="path50" />
    </clipPath>
    <clipPath
       clipPathUnits="userSpaceOnUse"
       id="clipPath52">
      <path
         d="M 0,595.276 H 841.89 V 0 H 0 Z"
         id="path52" />
    </clipPath>
    <clipPath
       clipPathUnits="userSpaceOnUse"
       id="clipPath54">
      <path
         d="M 0,595.276 H 841.89 V 0 H 0 Z"
         transform="translate(-789.89949,-184.45921)"
         id="path54" />
    </clipPath>
    <clipPath
       clipPathUnits="userSpaceOnUse"
       id="clipPath56">
      <path
         d="M 0,595.276 H 841.89 V 0 H 0 Z"
         transform="translate(-114.9295,-147.3958)"
         id="path56" />
    </clipPath>
    <clipPath
       clipPathUnits="userSpaceOnUse"
       id="clipPath58">
      <path
         d="M 0,595.276 H 841.89 V 0 H 0 Z"
         transform="translate(-146.33691,-147.3958)"
         id="path58" />
    </clipPath>
    <clipPath
       clipPathUnits="userSpaceOnUse"
       id="clipPath60">
      <path
         d="M 0,595.276 H 841.89 V 0 H 0 Z"
         transform="translate(-172.6801,-152.8411)"
         id="path60" />
    </clipPath>
    <clipPath
       clipPathUnits="userSpaceOnUse"
       id="clipPath62">
      <path
         d="M 0,595.276 H 841.89 V 0 H 0 Z"
         transform="translate(-188.30331,-150.3985)"
         id="path62" />
    </clipPath>
    <clipPath
       clipPathUnits="userSpaceOnUse"
       id="clipPath64">
      <path
         d="M 0,595.276 H 841.89 V 0 H 0 Z"
         transform="translate(-211.77781,-150.41371)"
         id="path64" />
    </clipPath>
    <clipPath
       clipPathUnits="userSpaceOnUse"
       id="clipPath66">
      <path
         d="M 0,595.276 H 841.89 V 0 H 0 Z"
         transform="translate(-238.0798,-147.3958)"
         id="path66" />
    </clipPath>
    <clipPath
       clipPathUnits="userSpaceOnUse"
       id="clipPath68">
      <path
         d="M 0,595.276 H 841.89 V 0 H 0 Z"
         transform="translate(-254.06091,-152.8411)"
         id="path68" />
    </clipPath>
    <clipPath
       clipPathUnits="userSpaceOnUse"
       id="clipPath70">
      <path
         d="M 0,595.276 H 841.89 V 0 H 0 Z"
         transform="translate(-283.3855,-144.3305)"
         id="path70" />
    </clipPath>
    <clipPath
       clipPathUnits="userSpaceOnUse"
       id="clipPath72">
      <path
         d="M 0,595.276 H 841.89 V 0 H 0 Z"
         id="path72" />
    </clipPath>
    <clipPath
       clipPathUnits="userSpaceOnUse"
       id="clipPath74">
      <path
         d="M 0,595.276 H 841.89 V 0 H 0 Z"
         transform="translate(-338.39781,-141.9497)"
         id="path74" />
    </clipPath>
    <clipPath
       clipPathUnits="userSpaceOnUse"
       id="clipPath76">
      <path
         d="M 0,595.276 H 841.89 V 0 H 0 Z"
         transform="translate(-364.55551,-141.9497)"
         id="path76" />
    </clipPath>
    <clipPath
       clipPathUnits="userSpaceOnUse"
       id="clipPath78">
      <path
         d="M 0,595.276 H 841.89 V 0 H 0 Z"
         transform="translate(-389.25701,-147.3958)"
         id="path78" />
    </clipPath>
    <clipPath
       clipPathUnits="userSpaceOnUse"
       id="clipPath80">
      <path
         d="M 0,595.276 H 841.89 V 0 H 0 Z"
         transform="translate(-412.48891,-145.27981)"
         id="path80" />
    </clipPath>
    <clipPath
       clipPathUnits="userSpaceOnUse"
       id="clipPath82">
      <path
         d="M 0,595.276 H 841.89 V 0 H 0 Z"
         id="path82" />
    </clipPath>
    <clipPath
       clipPathUnits="userSpaceOnUse"
       id="clipPath84">
      <path
         d="M 0,595.276 H 841.89 V 0 H 0 Z"
         transform="translate(-445.06531,-152.8411)"
         id="path84" />
    </clipPath>
    <clipPath
       clipPathUnits="userSpaceOnUse"
       id="clipPath86">
      <path
         d="M 0,595.276 H 841.89 V 0 H 0 Z"
         id="path86" />
    </clipPath>
    <clipPath
       clipPathUnits="userSpaceOnUse"
       id="clipPath88">
      <path
         d="M 0,595.276 H 841.89 V 0 H 0 Z"
         transform="translate(-490.93871,-144.3305)"
         id="path88" />
    </clipPath>
    <clipPath
       clipPathUnits="userSpaceOnUse"
       id="clipPath90">
      <path
         d="M 0,595.276 H 841.89 V 0 H 0 Z"
         transform="translate(-508.80941,-150.41371)"
         id="path90" />
    </clipPath>
    <clipPath
       clipPathUnits="userSpaceOnUse"
       id="clipPath92">
      <path
         d="M 0,595.276 H 841.89 V 0 H 0 Z"
         transform="translate(-551.19401,-144.3305)"
         id="path92" />
    </clipPath>
    <clipPath
       clipPathUnits="userSpaceOnUse"
       id="clipPath94">
      <path
         d="M 0,595.276 H 841.89 V 0 H 0 Z"
         transform="translate(-574.63531,-152.8411)"
         id="path94" />
    </clipPath>
    <clipPath
       clipPathUnits="userSpaceOnUse"
       id="clipPath96">
      <path
         d="M 0,595.276 H 841.89 V 0 H 0 Z"
         transform="translate(-606.81212,-150.4612)"
         id="path96" />
    </clipPath>
    <clipPath
       clipPathUnits="userSpaceOnUse"
       id="clipPath98">
      <path
         d="M 0,595.276 H 841.89 V 0 H 0 Z"
         transform="translate(-629.80991,-150.41371)"
         id="path98" />
    </clipPath>
    <clipPath
       clipPathUnits="userSpaceOnUse"
       id="clipPath100">
      <path
         d="M 0,595.276 H 841.89 V 0 H 0 Z"
         transform="translate(-654.55462,-146.3374)"
         id="path100" />
    </clipPath>
    <clipPath
       clipPathUnits="userSpaceOnUse"
       id="clipPath102">
      <path
         d="M 0,595.276 H 841.89 V 0 H 0 Z"
         transform="translate(-682.02002,-152.8411)"
         id="path102" />
    </clipPath>
    <clipPath
       clipPathUnits="userSpaceOnUse"
       id="clipPath104">
      <path
         d="M 0,595.276 H 841.89 V 0 H 0 Z"
         transform="translate(-694.88882,-147.3958)"
         id="path104" />
    </clipPath>
    <clipPath
       clipPathUnits="userSpaceOnUse"
       id="clipPath106">
      <path
         d="M 0,595.276 H 841.89 V 0 H 0 Z"
         transform="translate(-726.87092,-144.3305)"
         id="path106" />
    </clipPath>
  </defs>
  <sodipodi:namedview
     id="namedview1"
     pagecolor="#ffffff"
     bordercolor="#000000"
     borderopacity="0.25"
     inkscape:showpageshadow="2"
     inkscape:pageopacity="0.0"
     inkscape:pagecheckerboard="0"
     inkscape:deskcolor="#d1d1d1">
    <inkscape:page
       x="0"
       y="0"
       inkscape:label="1"
       id="page1"
       width="1122.52"
       height="793.70135"
       margin="188.976 66.14267 188.97734 66.141731"
       bleed="0" />
  </sodipodi:namedview>
  <g
     id="g1"
     inkscape:groupmode="layer"
     inkscape:label="1">
    <path
       id="path1"
       d="M 0,0 -17.656,-10.519 -17.537,-27.373 0,-16.884 Z"
       style="fill:#424a52;fill-opacity:1;fill-rule:nonzero;stroke:none"
       transform="matrix(1.3333333,0,0,-1.3333333,413.98307,281.30267)" />
    <path
       id="path2"
       d="M 0,0 0.13,0.113 0.163,0.095 0.193,0.113 V 0.078 l 133.741,-79.99 0.119,16.854 -133.86,79.729 v 0.035 L 0.163,16.688 0.13,16.706 v -0.035 l -82.116,-48.909 v -16.801 z"
       style="fill:#424a52;fill-opacity:1;fill-rule:nonzero;stroke:none"
       transform="matrix(1.3333333,0,0,-1.3333333,568.74787,211.25147)" />
    <path
       id="path3"
       d="m 0,0 -1.306,0.783 -151.44,90.576 -2.332,1.394 -2.339,-1.394 L -308.85,0.783 -310.156,0 v 1.525 32.029 0.487 l 0.415,0.252 40.755,24.375 2.217,1.334 v 2.572 34.687 0.861 h 0.86 23.272 0.859 v -0.861 -14.3 -8.021 l 6.892,4.117 79.364,47.479 0.444,0.261 0.444,-0.261 L -0.414,34.293 0,34.041 V 33.554 1.525 Z"
       style="fill:#b4131d;fill-opacity:1;fill-rule:nonzero;stroke:none"
       transform="matrix(1.3333333,0,0,-1.3333333,775.73613,387.25173)" />
    <path
       id="path4"
       d="m 0,0 -151.438,90.578 -2.776,1.661 -2.78,-1.661 L -308.432,0 v 32.035 l 40.757,24.376 2.63,1.574 v 3.07 34.691 h 23.275 V 81.442 71.906 l 8.187,4.891 79.369,47.479 L 0,32.035 Z"
       style="fill:#b4131d;fill-opacity:1;fill-rule:nonzero;stroke:none"
       transform="matrix(1.3333333,0,0,-1.3333333,774.58427,385.22667)" />
    <path
       id="path5"
       d="M 0,0 C 176.515,46.145 338.047,39.861 490.286,1.061 323.501,24.021 159.853,25.173 0,0"
       style="fill:#b4131d;fill-opacity:1;fill-rule:evenodd;stroke:none"
       transform="matrix(1.3333333,0,0,-1.3333333,240.54093,422.26227)"
       clip-path="url(#clipPath6)" />
    <path
       id="path7"
       d="M 0,0 C 197.532,46.144 378.293,39.861 548.652,1.061 362.013,24.02 178.886,25.171 0,0"
       style="fill:#424a52;fill-opacity:1;fill-rule:evenodd;stroke:none"
       transform="matrix(1.3333333,0,0,-1.3333333,195.49187,448.3884)"
       clip-path="url(#clipPath8)" />
    <path
       id="path9"
       d="m 0,0 -0.555,1.59 93.638,56.004 0.443,0.261 0.507,-0.261 L 187.5,1.689 186.944,0.096 C 156,4.008 124.676,5.993 93.839,5.993 62.743,5.993 31.172,3.971 0,0"
       style="fill:#424a52;fill-opacity:1;fill-rule:nonzero;stroke:none"
       transform="matrix(1.3333333,0,0,-1.3333333,444.2228,376.1144)"
       clip-path="url(#clipPath10)" />
    <path
       id="path11"
       d="m 0,0 -93.468,55.902 v 0.036 l -0.029,-0.018 -0.034,0.018 V 55.902 L -187.162,-0.1 C -122.561,8.141 -60.323,7.623 0,0"
       style="fill:#424a52;fill-opacity:1;fill-rule:nonzero;stroke:none"
       transform="matrix(1.3333333,0,0,-1.3333333,693.6288,374.84747)"
       clip-path="url(#clipPath12)" />
    <path
       id="path14"
       d="m 426.724,453.525 -0.033,0.018 v -0.035 l -82.116,-48.909 v -16.801 l 81.986,49.039 0.13,0.113 0.033,-0.018 0.03,0.018 v -0.035 l 133.741,-79.989 0.119,16.854 -133.86,79.728 v 0.035 z m -133.893,-79.745 0.119,-16.854 17.537,10.488 v 16.885 z"
       transform="matrix(1.3333333,0,0,-1.3333333,0,793.70133)"
       style="fill:url(#linearGradient14);stroke:none" />
    <path
       id="path17"
       d="m 180.406,278.58 c 159.852,25.172 323.5,24.021 490.286,1.061 v 0 c -78.452,19.994 -159.369,31.354 -243.535,31.354 v 0 C 347.995,310.994 265.959,300.945 180.406,278.58"
       transform="matrix(1.3333333,0,0,-1.3333333,0,793.70133)"
       style="fill:url(#linearGradient17);stroke:none" />
    <path
       id="path20"
       d="m 146.619,258.985 c 178.887,25.17 362.012,24.02 548.652,1.061 v 0 c -87.789,19.994 -178.339,31.353 -272.524,31.353 v 0 c -88.586,0 -180.388,-10.049 -276.128,-32.414"
       transform="matrix(1.3333333,0,0,-1.3333333,0,793.70133)"
       style="fill:url(#linearGradient20);stroke:none" />
    <path
       id="path23"
       d="m 347.356,383.153 -8.188,-4.89 v 9.535 14.304 h -23.274 v -34.691 -3.07 l -2.631,-1.574 -40.756,-24.376 v -1.049 c 19.493,2.575 40.347,4.684 62.261,6.256 v 0 l 89.176,53.336 2.78,1.662 2.776,-1.662 88.678,-53.037 c 22.06,-1.504 43.082,-3.543 62.76,-6.059 v 0 0.553 l -154.214,92.241 z"
       transform="matrix(1.3333333,0,0,-1.3333333,0,793.70133)"
       style="fill:url(#linearGradient23);stroke:none" />
    <path
       id="path26"
       d="m 426.724,370.06 -0.033,0.018 v -0.036 l -39.82,-23.816 c 13.66,0.417 27.584,0.644 41.75,0.644 v 0 c 12.823,0 25.401,-0.22 37.815,-0.564 v 0 l -39.682,23.736 v 0.036 z"
       transform="matrix(1.3333333,0,0,-1.3333333,0,793.70133)"
       style="fill:url(#linearGradient26);stroke:none" />
    <path
       id="path27"
       d="m 0,0 v -3.554 h -31.158 v -23.923 h 25.93 v -3.471 h -25.93 V -55.624 H 0 v -3.555 H -35.465 V 0 Z"
       style="fill:#b4131d;fill-opacity:1;fill-rule:nonzero;stroke:none"
       transform="matrix(1.3333333,0,0,-1.3333333,113.42907,482.12267)"
       clip-path="url(#clipPath28)" />
    <path
       id="path29"
       d="m 0,0 c 0,4.126 -0.572,7.807 -1.714,11.041 -1.144,3.235 -2.754,5.967 -4.831,8.198 -2.078,2.23 -4.58,3.931 -7.507,5.102 -2.928,1.171 -6.176,1.757 -9.745,1.757 h -17.272 v -52.237 h 17.272 c 3.569,0 6.817,0.586 9.745,1.756 2.927,1.172 5.429,2.872 7.507,5.103 2.077,2.231 3.687,4.963 4.831,8.198 C -0.572,-7.848 0,-4.155 0,0 m 4.434,0 c 0,-4.572 -0.684,-8.685 -2.05,-12.337 -1.366,-3.653 -3.29,-6.762 -5.771,-9.327 -2.482,-2.565 -5.452,-4.531 -8.909,-5.897 -3.457,-1.366 -7.291,-2.049 -11.501,-2.049 h -21.58 v 59.179 h 21.58 c 4.21,0 8.044,-0.683 11.501,-2.049 3.457,-1.366 6.427,-3.332 8.909,-5.897 2.481,-2.566 4.405,-5.675 5.771,-9.327 C 3.75,8.644 4.434,4.544 4.434,0"
       style="fill:#b4131d;fill-opacity:1;fill-rule:nonzero;stroke:none"
       transform="matrix(1.3333333,0,0,-1.3333333,192.55613,521.54787)"
       clip-path="url(#clipPath30)" />
    <path
       id="path31"
       d="M 0,0 H 28.063 V -3.639 H -4.266 V 55.54 H 0 Z"
       style="fill:#b4131d;fill-opacity:1;fill-rule:nonzero;stroke:none"
       transform="matrix(1.3333333,0,0,-1.3333333,222.5004,556.17627)"
       clip-path="url(#clipPath32)" />
    <path
       id="path33"
       d="m 0,0 c 0,-2.147 0.411,-4.015 1.234,-5.605 0.822,-1.588 1.888,-2.92 3.199,-3.994 1.31,-1.073 2.767,-1.875 4.37,-2.404 1.603,-0.53 3.185,-0.795 4.747,-0.795 1.951,0 3.799,0.223 5.542,0.669 1.742,0.446 3.373,1.067 4.893,1.862 1.52,0.794 2.914,1.736 4.182,2.822 1.269,1.088 2.433,2.287 3.493,3.597 L 12.463,15.015 c -0.167,0.139 -0.321,0.292 -0.46,0.459 C 10.163,14.693 8.496,13.76 7.005,12.672 5.513,11.585 4.251,10.379 3.22,9.055 2.188,7.73 1.394,6.301 0.836,4.768 0.278,3.234 0,1.645 0,0 m 19.071,44.458 c 1.868,0 3.639,-0.322 5.312,-0.962 1.672,-0.642 3.129,-1.507 4.37,-2.593 1.24,-1.087 2.23,-2.349 2.969,-3.786 0.739,-1.436 1.136,-2.934 1.192,-4.496 -0.39,-0.083 -0.739,-0.166 -1.045,-0.25 -0.642,-0.14 -1.144,-0.209 -1.506,-0.209 -0.223,0 -0.432,0.083 -0.627,0.25 -0.195,0.168 -0.335,0.404 -0.418,0.711 -0.196,0.725 -0.531,1.562 -1.004,2.51 -0.475,0.948 -1.116,1.84 -1.924,2.676 -0.809,0.837 -1.819,1.548 -3.032,2.133 -1.213,0.586 -2.642,0.879 -4.287,0.879 -1.673,0 -3.193,-0.259 -4.559,-0.774 C 13.146,40.031 11.975,39.306 10.999,38.372 10.023,37.438 9.263,36.329 8.72,35.048 8.176,33.765 7.905,32.357 7.905,30.824 c 0,-2.287 0.585,-4.476 1.756,-6.567 1.171,-2.091 2.983,-4.335 5.437,-6.734 L 33.751,-0.878 c 1.254,2.007 2.251,4.099 2.99,6.273 0.739,2.175 1.219,4.28 1.443,6.316 0.055,0.361 0.167,0.648 0.335,0.857 0.167,0.209 0.418,0.313 0.752,0.313 h 2.301 C 41.516,10.26 41.021,7.563 40.087,4.789 39.152,2.014 37.821,-0.642 36.093,-3.178 l 12.463,-12.213 h -3.722 c -0.502,0 -0.914,0.056 -1.234,0.167 -0.321,0.111 -0.69,0.363 -1.108,0.753 l -8.574,8.407 c -1.255,-1.451 -2.635,-2.789 -4.14,-4.015 -1.506,-1.228 -3.137,-2.28 -4.894,-3.158 -1.756,-0.878 -3.632,-1.569 -5.625,-2.07 -1.994,-0.502 -4.092,-0.753 -6.294,-0.753 -2.091,0 -4.155,0.349 -6.19,1.045 -2.035,0.698 -3.855,1.722 -5.458,3.075 -1.603,1.351 -2.9,3.011 -3.89,4.977 -0.99,1.965 -1.484,4.203 -1.484,6.712 0,2.008 0.362,3.924 1.087,5.75 0.725,1.826 1.715,3.499 2.97,5.02 1.254,1.518 2.746,2.878 4.475,4.077 1.728,1.199 3.596,2.175 5.604,2.927 -1.98,2.231 -3.465,4.398 -4.454,6.504 -0.99,2.105 -1.485,4.356 -1.485,6.754 0,1.952 0.356,3.758 1.067,5.416 0.711,1.659 1.721,3.101 3.032,4.33 1.31,1.225 2.878,2.188 4.705,2.885 1.826,0.697 3.868,1.046 6.127,1.046"
       style="fill:#b4131d;fill-opacity:1;fill-rule:nonzero;stroke:none"
       transform="matrix(1.3333333,0,0,-1.3333333,294.99147,540.50707)"
       clip-path="url(#clipPath34)" />
    <path
       id="path35"
       d="m 0,0 c 0,4.126 -0.572,7.807 -1.714,11.041 -1.144,3.235 -2.754,5.967 -4.831,8.198 -2.078,2.23 -4.58,3.931 -7.507,5.102 -2.928,1.171 -6.176,1.757 -9.745,1.757 h -17.272 v -52.237 h 17.272 c 3.569,0 6.817,0.586 9.745,1.756 2.927,1.172 5.429,2.872 7.507,5.103 2.077,2.231 3.687,4.963 4.831,8.198 C -0.572,-7.848 0,-4.155 0,0 m 4.434,0 c 0,-4.572 -0.684,-8.685 -2.05,-12.337 -1.366,-3.653 -3.29,-6.762 -5.771,-9.327 -2.482,-2.565 -5.452,-4.531 -8.909,-5.897 -3.457,-1.366 -7.291,-2.049 -11.501,-2.049 h -21.58 v 59.179 h 21.58 c 4.21,0 8.044,-0.683 11.501,-2.049 3.457,-1.366 6.427,-3.332 8.909,-5.897 2.481,-2.566 4.405,-5.675 5.771,-9.327 C 3.75,8.644 4.434,4.544 4.434,0"
       style="fill:#b4131d;fill-opacity:1;fill-rule:nonzero;stroke:none"
       transform="matrix(1.3333333,0,0,-1.3333333,454.52947,521.54787)"
       clip-path="url(#clipPath36)" />
    <path
       id="path37"
       d="m 364.945,174.505 h -4.308 v 59.179 h 4.308 z"
       style="fill:#b4131d;fill-opacity:1;fill-rule:nonzero;stroke:none"
       transform="matrix(1.3333333,0,0,-1.3333333,0,793.70133)"
       clip-path="url(#clipPath38)" />
    <path
       id="path39"
       d="M 0,0 H 26.516 L 14.429,29.903 c -0.195,0.474 -0.391,1.01 -0.586,1.61 -0.195,0.6 -0.39,1.234 -0.585,1.903 -0.196,-0.669 -0.391,-1.303 -0.586,-1.903 -0.195,-0.6 -0.391,-1.15 -0.585,-1.652 z m 39.607,-21.497 h -3.304 c -0.392,0 -0.711,0.104 -0.963,0.313 -0.251,0.209 -0.446,0.481 -0.585,0.816 l -6.984,17.19 H -1.297 l -6.942,-17.19 c -0.112,-0.307 -0.307,-0.572 -0.586,-0.794 -0.278,-0.224 -0.613,-0.335 -1.003,-0.335 h -3.262 l 24.215,59.179 h 4.266 z"
       style="fill:#b4131d;fill-opacity:1;fill-rule:nonzero;stroke:none"
       transform="matrix(1.3333333,0,0,-1.3333333,518.71267,532.36547)"
       clip-path="url(#clipPath40)" />
    <path
       id="path41"
       d="m 0,0 c 2.035,0 3.889,0.104 5.562,0.313 1.673,0.209 3.227,0.524 4.663,0.942 1.436,0.418 2.802,0.926 4.099,1.526 1.296,0.599 2.6,1.276 3.91,2.028 V 20.744 H 6.858 c -0.307,0 -0.564,0.098 -0.773,0.292 -0.21,0.195 -0.314,0.419 -0.314,0.67 v 2.342 H 22.124 V 3.011 C 20.646,1.979 19.113,1.059 17.523,0.25 15.935,-0.558 14.233,-1.234 12.422,-1.777 10.608,-2.321 8.657,-2.739 6.566,-3.032 c -2.092,-0.293 -4.378,-0.44 -6.859,-0.44 -4.266,0 -8.162,0.718 -11.69,2.154 -3.527,1.436 -6.552,3.472 -9.075,6.107 -2.523,2.635 -4.482,5.819 -5.876,9.556 -1.394,3.736 -2.091,7.891 -2.091,12.463 0,4.573 0.697,8.72 2.091,12.442 1.394,3.722 3.373,6.902 5.939,9.536 2.565,2.635 5.68,4.67 9.347,6.106 3.666,1.436 7.772,2.154 12.317,2.154 2.258,0 4.342,-0.153 6.252,-0.46 1.91,-0.307 3.687,-0.76 5.333,-1.359 1.645,-0.601 3.178,-1.338 4.601,-2.217 1.421,-0.878 2.788,-1.89 4.098,-3.032 l -1.129,-1.84 c -0.252,-0.418 -0.6,-0.627 -1.046,-0.627 -0.251,0 -0.488,0.055 -0.711,0.166 -0.418,0.168 -1.025,0.558 -1.819,1.172 -0.794,0.613 -1.868,1.255 -3.221,1.923 -1.352,0.67 -3.046,1.27 -5.081,1.799 -2.036,0.53 -4.503,0.794 -7.402,0.794 -3.848,0 -7.32,-0.613 -10.415,-1.84 -3.095,-1.227 -5.736,-2.983 -7.924,-5.269 -2.19,-2.286 -3.876,-5.075 -5.061,-8.365 -1.186,-3.29 -1.778,-6.984 -1.778,-11.083 0,-4.182 0.6,-7.932 1.799,-11.25 1.198,-3.319 2.878,-6.127 5.04,-8.428 2.16,-2.299 4.752,-4.063 7.778,-5.29 C -6.992,0.613 -3.653,0 0,0"
       style="fill:#b4131d;fill-opacity:1;fill-rule:nonzero;stroke:none"
       transform="matrix(1.3333333,0,0,-1.3333333,616.242,557.29173)"
       clip-path="url(#clipPath42)" />
    <path
       id="path43"
       d="M 0,0 C 0.223,-0.098 0.46,-0.313 0.711,-0.648 L 39.02,-51.923 c -0.083,0.837 -0.125,1.645 -0.125,2.426 V 0.146 h 3.764 V -59.033 H 40.61 c -0.642,0 -1.158,0.278 -1.547,0.837 L 0.585,-6.838 C 0.669,-7.674 0.711,-8.47 0.711,-9.222 V -59.033 H -3.011 V 0.146 H -0.92 C -0.531,0.146 -0.224,0.098 0,0"
       style="fill:#b4131d;fill-opacity:1;fill-rule:nonzero;stroke:none"
       transform="matrix(1.3333333,0,0,-1.3333333,669.82947,482.31773)"
       clip-path="url(#clipPath44)" />
    <path
       id="path45"
       d="m 0,0 c 0,4.126 -0.572,7.835 -1.714,11.126 -1.145,3.289 -2.754,6.077 -4.831,8.364 -2.078,2.285 -4.58,4.035 -7.507,5.248 -2.928,1.214 -6.177,1.819 -9.746,1.819 -3.513,0 -6.726,-0.605 -9.639,-1.819 -2.914,-1.213 -5.424,-2.963 -7.528,-5.248 -2.106,-2.287 -3.737,-5.075 -4.894,-8.364 -1.157,-3.291 -1.735,-7 -1.735,-11.126 0,-4.155 0.578,-7.87 1.735,-11.145 1.157,-3.277 2.788,-6.058 4.894,-8.344 2.104,-2.286 4.614,-4.029 7.528,-5.227 2.913,-1.2 6.126,-1.799 9.639,-1.799 3.569,0 6.818,0.599 9.746,1.799 2.927,1.198 5.429,2.941 7.507,5.227 2.077,2.286 3.686,5.067 4.831,8.344 C -0.572,-7.87 0,-4.155 0,0 m 4.433,0 c 0,-4.572 -0.683,-8.72 -2.049,-12.442 -1.366,-3.722 -3.291,-6.901 -5.771,-9.535 -2.482,-2.635 -5.452,-4.671 -8.909,-6.106 -3.457,-1.436 -7.292,-2.155 -11.502,-2.155 -4.154,0 -7.96,0.719 -11.417,2.155 -3.457,1.435 -6.426,3.471 -8.908,6.106 -2.482,2.634 -4.413,5.813 -5.792,9.535 -1.381,3.722 -2.071,7.87 -2.071,12.442 0,4.544 0.69,8.679 2.071,12.401 1.379,3.722 3.31,6.901 5.792,9.535 2.482,2.635 5.451,4.677 8.908,6.128 3.457,1.449 7.263,2.175 11.417,2.175 4.21,0 8.045,-0.719 11.502,-2.155 3.457,-1.436 6.427,-3.478 8.909,-6.127 2.48,-2.649 4.405,-5.834 5.771,-9.556 C 3.75,8.679 4.433,4.544 4.433,0"
       style="fill:#b4131d;fill-opacity:1;fill-rule:nonzero;stroke:none"
       transform="matrix(1.3333333,0,0,-1.3333333,814.59187,521.54787)"
       clip-path="url(#clipPath46)" />
    <path
       id="path47"
       d="m 0,0 c -0.251,-0.475 -0.614,-0.711 -1.088,-0.711 -0.364,0 -0.832,0.258 -1.405,0.774 -0.574,0.515 -1.351,1.087 -2.33,1.714 -0.978,0.628 -2.202,1.206 -3.67,1.736 -1.469,0.529 -3.28,0.794 -5.434,0.794 -2.154,0 -4.049,-0.307 -5.685,-0.92 -1.637,-0.614 -3.007,-1.45 -4.112,-2.509 -1.106,-1.06 -1.944,-2.286 -2.517,-3.68 -0.574,-1.395 -0.86,-2.859 -0.86,-4.392 0,-2.007 0.425,-3.667 1.276,-4.976 0.852,-1.312 1.976,-2.426 3.372,-3.346 1.396,-0.92 2.98,-1.694 4.754,-2.322 1.773,-0.627 3.595,-1.248 5.466,-1.861 1.87,-0.613 3.691,-1.29 5.464,-2.028 1.773,-0.739 3.358,-1.667 4.754,-2.781 1.396,-1.116 2.52,-2.488 3.372,-4.12 0.852,-1.631 1.277,-3.66 1.277,-6.085 0,-2.482 -0.425,-4.817 -1.275,-7.006 -0.851,-2.189 -2.084,-4.092 -3.702,-5.708 -1.617,-1.618 -3.596,-2.893 -5.938,-3.827 -2.343,-0.934 -5.019,-1.402 -8.03,-1.402 -3.904,0 -7.264,0.691 -10.08,2.071 -2.816,1.381 -5.284,3.269 -7.402,5.668 l 1.171,1.84 c 0.334,0.418 0.725,0.627 1.171,0.627 0.251,0 0.573,-0.168 0.963,-0.502 0.391,-0.335 0.866,-0.747 1.424,-1.234 0.558,-0.488 1.229,-1.018 2.01,-1.59 0.782,-0.571 1.69,-1.101 2.723,-1.588 1.032,-0.489 2.219,-0.9 3.559,-1.234 1.341,-0.335 2.862,-0.502 4.565,-0.502 2.346,0 4.44,0.355 6.283,1.066 1.843,0.711 3.4,1.679 4.67,2.907 1.27,1.226 2.24,2.683 2.91,4.371 0.67,1.686 1.006,3.491 1.006,5.416 0,2.091 -0.427,3.812 -1.278,5.164 -0.853,1.353 -1.977,2.482 -3.372,3.389 -1.396,0.905 -2.98,1.665 -4.753,2.279 -1.773,0.613 -3.596,1.212 -5.466,1.798 -1.871,0.586 -3.692,1.24 -5.465,1.966 -1.773,0.724 -3.358,1.652 -4.754,2.781 -1.397,1.129 -2.521,2.536 -3.372,4.224 -0.852,1.686 -1.277,3.798 -1.277,6.336 0,1.98 0.377,3.89 1.131,5.73 0.754,1.84 1.857,3.464 3.308,4.872 1.453,1.408 3.247,2.537 5.382,3.387 2.136,0.851 4.572,1.277 7.309,1.277 3.071,0 5.828,-0.489 8.271,-1.464 2.443,-0.977 4.669,-2.468 6.677,-4.476 z"
       style="fill:#b4131d;fill-opacity:1;fill-rule:nonzero;stroke:none"
       transform="matrix(1.3333333,0,0,-1.3333333,877.2688,491.7136)"
       clip-path="url(#clipPath48)" />
    <path
       id="path49"
       d="m 0,0 v -3.639 h -20.786 v -55.54 h -4.266 v 55.54 H -45.963 V 0 Z"
       style="fill:#b4131d;fill-opacity:1;fill-rule:nonzero;stroke:none"
       transform="matrix(1.3333333,0,0,-1.3333333,948.86773,482.12267)"
       clip-path="url(#clipPath50)" />
    <path
       id="path51"
       d="m 727.75,174.505 h -4.307 v 59.179 h 4.307 z"
       style="fill:#b4131d;fill-opacity:1;fill-rule:nonzero;stroke:none"
       transform="matrix(1.3333333,0,0,-1.3333333,0,793.70133)"
       clip-path="url(#clipPath52)" />
    <path
       id="path53"
       d="m 0,0 c 0.278,0 0.515,-0.099 0.711,-0.294 l 1.673,-1.797 c -1.228,-1.312 -2.566,-2.489 -4.015,-3.534 -1.45,-1.046 -3.033,-1.939 -4.747,-2.677 -1.715,-0.739 -3.597,-1.311 -5.646,-1.715 -2.05,-0.404 -4.301,-0.607 -6.754,-0.607 -4.099,0 -7.857,0.718 -11.272,2.154 -3.415,1.437 -6.343,3.472 -8.783,6.107 -2.439,2.635 -4.342,5.819 -5.708,9.556 -1.366,3.736 -2.049,7.891 -2.049,12.463 0,4.489 0.703,8.588 2.111,12.296 1.408,3.708 3.388,6.894 5.939,9.556 2.552,2.662 5.604,4.727 9.16,6.19 3.554,1.464 7.478,2.196 11.772,2.196 2.147,0 4.113,-0.16 5.897,-0.481 1.785,-0.321 3.451,-0.781 4.998,-1.38 1.547,-0.6 3.004,-1.346 4.37,-2.238 1.366,-0.892 2.705,-1.923 4.016,-3.095 L 0.376,40.818 c -0.224,-0.334 -0.572,-0.502 -1.046,-0.502 -0.25,0 -0.571,0.147 -0.961,0.44 -0.391,0.293 -0.886,0.654 -1.485,1.087 -0.6,0.432 -1.324,0.906 -2.175,1.422 -0.85,0.516 -1.861,0.99 -3.032,1.423 -1.171,0.431 -2.523,0.794 -4.056,1.087 -1.534,0.292 -3.278,0.438 -5.229,0.438 -3.596,0 -6.9,-0.62 -9.912,-1.86 -3.011,-1.242 -5.604,-3.012 -7.779,-5.312 -2.174,-2.301 -3.869,-5.088 -5.081,-8.365 -1.213,-3.276 -1.82,-6.95 -1.82,-11.02 0,-4.182 0.6,-7.918 1.799,-11.208 1.198,-3.291 2.858,-6.071 4.977,-8.344 2.118,-2.273 4.621,-4.015 7.508,-5.227 2.885,-1.214 6.014,-1.82 9.388,-1.82 2.119,0 4.008,0.139 5.668,0.418 1.658,0.279 3.184,0.697 4.579,1.255 1.394,0.558 2.69,1.241 3.889,2.049 1.199,0.808 2.384,1.757 3.555,2.844 0.14,0.111 0.272,0.202 0.397,0.272 C -0.314,-0.036 -0.168,0 0,0"
       style="fill:#b4131d;fill-opacity:1;fill-rule:nonzero;stroke:none"
       transform="matrix(1.3333333,0,0,-1.3333333,1053.1993,547.75573)"
       clip-path="url(#clipPath54)" />
    <path
       id="path55"
       d="m 0,0 c 0,3.314 2.536,5.664 5.99,5.664 2.007,0 3.626,-0.731 4.684,-2.055 L 8.713,1.836 C 8.029,2.661 7.189,3.112 6.146,3.112 4.356,3.112 3.112,1.867 3.112,0 c 0,-1.867 1.244,-3.112 3.034,-3.112 1.043,0 1.883,0.451 2.567,1.276 L 10.674,-3.61 C 9.616,-4.933 7.997,-5.664 5.99,-5.664 2.536,-5.664 0,-3.314 0,0"
       style="fill:#424a52;fill-opacity:1;fill-rule:nonzero;stroke:none"
       transform="matrix(1.3333333,0,0,-1.3333333,153.23933,597.1736)"
       clip-path="url(#clipPath56)" />
    <path
       id="path57"
       d="m 0,0 c 0,1.882 -1.292,3.112 -2.941,3.112 -1.649,0 -2.94,-1.23 -2.94,-3.112 0,-1.883 1.291,-3.112 2.94,-3.112 C -1.292,-3.112 0,-1.883 0,0 m -8.993,0 c 0,3.268 2.567,5.664 6.052,5.664 3.485,0 6.053,-2.396 6.053,-5.664 0,-3.268 -2.568,-5.664 -6.053,-5.664 -3.485,0 -6.052,2.396 -6.052,5.664"
       style="fill:#424a52;fill-opacity:1;fill-rule:nonzero;stroke:none"
       transform="matrix(1.3333333,0,0,-1.3333333,195.11587,597.1736)"
       clip-path="url(#clipPath58)" />
    <path
       id="path59"
       d="m 0,0 v -10.891 h -2.536 l -4.808,5.804 v -5.804 h -3.019 V 0 h 2.536 l 4.808,-5.803 V 0 Z"
       style="fill:#424a52;fill-opacity:1;fill-rule:nonzero;stroke:none"
       transform="matrix(1.3333333,0,0,-1.3333333,230.24013,589.9132)"
       clip-path="url(#clipPath60)" />
    <path
       id="path61"
       d="M 0,0 H -3.345 V 2.443 H 6.411 V 0 H 3.081 V -8.449 H 0 Z"
       style="fill:#424a52;fill-opacity:1;fill-rule:nonzero;stroke:none"
       transform="matrix(1.3333333,0,0,-1.3333333,251.07107,593.17)"
       clip-path="url(#clipPath62)" />
    <path
       id="path63"
       d="M 0,0 H -1.712 V -3.19 H 0 c 1.276,0 1.914,0.592 1.914,1.588 C 1.914,-0.59 1.276,0 0,0 m -0.031,-5.57 h -1.681 v -2.894 h -3.08 V 2.427 h 4.979 c 2.972,0 4.839,-1.539 4.839,-4.029 0,-1.603 -0.778,-2.786 -2.132,-3.439 l 2.35,-3.423 H 1.945 Z"
       style="fill:#424a52;fill-opacity:1;fill-rule:nonzero;stroke:none"
       transform="matrix(1.3333333,0,0,-1.3333333,282.3704,593.14973)"
       clip-path="url(#clipPath64)" />
    <path
       id="path65"
       d="m 0,0 c 0,1.882 -1.292,3.112 -2.941,3.112 -1.649,0 -2.94,-1.23 -2.94,-3.112 0,-1.883 1.291,-3.112 2.94,-3.112 C -1.292,-3.112 0,-1.883 0,0 m -4.279,6.333 h -1.96 l 2.022,2.365 h 2.552 L 0.358,6.333 h -1.96 L -2.941,7.515 Z M 3.112,0 c 0,-3.268 -2.568,-5.664 -6.053,-5.664 -3.485,0 -6.052,2.396 -6.052,5.664 0,3.268 2.567,5.664 6.052,5.664 3.485,0 6.053,-2.396 6.053,-5.664"
       style="fill:#424a52;fill-opacity:1;fill-rule:nonzero;stroke:none"
       transform="matrix(1.3333333,0,0,-1.3333333,317.43973,597.1736)"
       clip-path="url(#clipPath66)" />
    <path
       id="path67"
       d="m 0,0 h 3.08 v -8.449 h 5.197 v -2.442 H 0 Z"
       style="fill:#424a52;fill-opacity:1;fill-rule:nonzero;stroke:none"
       transform="matrix(1.3333333,0,0,-1.3333333,338.74787,589.9132)"
       clip-path="url(#clipPath68)" />
    <path
       id="path69"
       d="M 0,0 V -2.381 H -8.745 V 8.511 h 8.543 V 6.131 H -5.695 V 4.295 h 4.839 V 1.992 H -5.695 V 0 Z"
       style="fill:#424a52;fill-opacity:1;fill-rule:nonzero;stroke:none"
       transform="matrix(1.3333333,0,0,-1.3333333,377.84733,601.26067)"
       clip-path="url(#clipPath70)" />
    <path
       id="path71"
       d="m 312.016,152.841 h 3.081 V 141.95 h -3.081 z"
       style="fill:#424a52;fill-opacity:1;fill-rule:nonzero;stroke:none"
       transform="matrix(1.3333333,0,0,-1.3333333,0,793.70133)"
       clip-path="url(#clipPath72)" />
    <path
       id="path73"
       d="M 0,0 -0.031,5.773 -2.832,1.074 H -4.201 L -6.986,5.617 V 0 h -2.847 v 10.891 h 2.536 L -3.47,4.606 0.265,10.891 H 2.801 L 2.832,0 Z"
       style="fill:#424a52;fill-opacity:1;fill-rule:nonzero;stroke:none"
       transform="matrix(1.3333333,0,0,-1.3333333,451.19707,604.43507)"
       clip-path="url(#clipPath74)" />
    <path
       id="path75"
       d="M 0,0 -0.031,5.773 -2.832,1.074 H -4.201 L -6.986,5.617 V 0 h -2.847 v 10.891 h 2.536 L -3.47,4.606 0.265,10.891 H 2.801 L 2.832,0 Z"
       style="fill:#424a52;fill-opacity:1;fill-rule:nonzero;stroke:none"
       transform="matrix(1.3333333,0,0,-1.3333333,486.074,604.43507)"
       clip-path="url(#clipPath76)" />
    <path
       id="path77"
       d="m 0,0 c 0,1.882 -1.292,3.112 -2.941,3.112 -1.649,0 -2.94,-1.23 -2.94,-3.112 0,-1.883 1.291,-3.112 2.94,-3.112 C -1.292,-3.112 0,-1.883 0,0 m -8.993,0 c 0,3.268 2.567,5.664 6.052,5.664 3.485,0 6.053,-2.396 6.053,-5.664 0,-3.268 -2.568,-5.664 -6.053,-5.664 -3.485,0 -6.052,2.396 -6.052,5.664"
       style="fill:#424a52;fill-opacity:1;fill-rule:nonzero;stroke:none"
       transform="matrix(1.3333333,0,0,-1.3333333,519.00933,597.1736)"
       clip-path="url(#clipPath78)" />
    <path
       id="path79"
       d="m 0,0 c 0,0.746 -0.56,1.104 -1.618,1.104 h -2.583 v -2.209 h 2.583 C -0.56,-1.105 0,-0.747 0,0 M -4.201,5.337 V 3.236 h 2.116 c 1.027,0 1.556,0.358 1.556,1.058 0,0.685 -0.529,1.043 -1.556,1.043 z m 7.313,-5.68 c 0,-1.882 -1.556,-2.987 -4.481,-2.987 H -7.251 V 7.561 h 5.57 C 1.182,7.561 2.583,6.395 2.583,4.714 2.583,3.672 2.054,2.832 1.12,2.35 2.35,1.914 3.112,0.98 3.112,-0.343"
       style="fill:#424a52;fill-opacity:1;fill-rule:nonzero;stroke:none"
       transform="matrix(1.3333333,0,0,-1.3333333,549.9852,599.99493)"
       clip-path="url(#clipPath80)" />
    <path
       id="path81"
       d="m 428.517,152.841 h 3.081 V 141.95 h -3.081 z"
       style="fill:#424a52;fill-opacity:1;fill-rule:nonzero;stroke:none"
       transform="matrix(1.3333333,0,0,-1.3333333,0,793.70133)"
       clip-path="url(#clipPath82)" />
    <path
       id="path83"
       d="m 0,0 h 3.081 v -8.449 h 5.197 v -2.442 H 0 Z"
       style="fill:#424a52;fill-opacity:1;fill-rule:nonzero;stroke:none"
       transform="matrix(1.3333333,0,0,-1.3333333,593.4204,589.9132)"
       clip-path="url(#clipPath84)" />
    <path
       id="path85"
       d="m 465.645,152.841 h 3.081 V 141.95 h -3.081 z"
       style="fill:#424a52;fill-opacity:1;fill-rule:nonzero;stroke:none"
       transform="matrix(1.3333333,0,0,-1.3333333,0,793.70133)"
       clip-path="url(#clipPath86)" />
    <path
       id="path87"
       d="M 0,0 V -2.381 H -8.744 V 8.511 h 8.542 V 6.131 H -5.695 V 4.295 h 4.84 V 1.992 h -4.84 V 0 Z"
       style="fill:#424a52;fill-opacity:1;fill-rule:nonzero;stroke:none"
       transform="matrix(1.3333333,0,0,-1.3333333,654.58493,601.26067)"
       clip-path="url(#clipPath88)" />
    <path
       id="path89"
       d="M 0,0 H -1.712 V -3.19 H 0 c 1.276,0 1.914,0.592 1.914,1.588 C 1.914,-0.59 1.276,0 0,0 m -0.03,-5.57 h -1.682 v -2.894 h -3.08 V 2.427 h 4.979 c 2.972,0 4.839,-1.539 4.839,-4.029 0,-1.603 -0.778,-2.786 -2.132,-3.439 l 2.35,-3.423 H 1.945 Z"
       style="fill:#424a52;fill-opacity:1;fill-rule:nonzero;stroke:none"
       transform="matrix(1.3333333,0,0,-1.3333333,678.41253,593.14973)"
       clip-path="url(#clipPath90)" />
    <path
       id="path91"
       d="M 0,0 V -2.381 H -8.745 V 8.511 h 8.543 V 6.131 H -5.695 V 4.295 h 4.839 V 1.992 H -5.695 V 0 Z"
       style="fill:#424a52;fill-opacity:1;fill-rule:nonzero;stroke:none"
       transform="matrix(1.3333333,0,0,-1.3333333,734.92533,601.26067)"
       clip-path="url(#clipPath92)" />
    <path
       id="path93"
       d="m 0,0 v -10.891 h -2.536 l -4.809,5.804 v -5.804 h -3.018 V 0 h 2.536 l 4.808,-5.803 V 0 Z"
       style="fill:#424a52;fill-opacity:1;fill-rule:nonzero;stroke:none"
       transform="matrix(1.3333333,0,0,-1.3333333,766.1804,589.9132)"
       clip-path="url(#clipPath94)" />
    <path
       id="path95"
       d="M 0,0 V -2.396 H 4.808 V -4.777 H 0 V -8.511 H -3.081 V 2.38 H 5.462 V 0 Z"
       style="fill:#424a52;fill-opacity:1;fill-rule:nonzero;stroke:none"
       transform="matrix(1.3333333,0,0,-1.3333333,809.0828,593.0864)"
       clip-path="url(#clipPath96)" />
    <path
       id="path97"
       d="M 0,0 H -1.712 V -3.19 H 0 c 1.276,0 1.914,0.592 1.914,1.588 C 1.914,-0.59 1.276,0 0,0 m -0.03,-5.57 h -1.682 v -2.894 h -3.08 V 2.427 h 4.979 c 2.972,0 4.839,-1.539 4.839,-4.029 0,-1.603 -0.779,-2.786 -2.132,-3.439 l 2.35,-3.423 H 1.945 Z"
       style="fill:#424a52;fill-opacity:1;fill-rule:nonzero;stroke:none"
       transform="matrix(1.3333333,0,0,-1.3333333,839.74653,593.14973)"
       clip-path="url(#clipPath98)" />
    <path
       id="path99"
       d="M 0,0 -1.401,3.486 -2.8,0 Z M 0.902,-2.272 H -3.704 L -4.56,-4.388 H -7.703 L -2.895,6.504 H 0.139 L 4.963,-4.388 H 1.758 Z"
       style="fill:#424a52;fill-opacity:1;fill-rule:nonzero;stroke:none"
       transform="matrix(1.3333333,0,0,-1.3333333,872.73947,598.5848)"
       clip-path="url(#clipPath100)" />
    <path
       id="path101"
       d="m 0,0 v -10.891 h -2.537 l -4.807,5.804 v -5.804 h -3.019 V 0 h 2.537 l 4.807,-5.803 V 0 Z"
       style="fill:#424a52;fill-opacity:1;fill-rule:nonzero;stroke:none"
       transform="matrix(1.3333333,0,0,-1.3333333,909.36,589.9132)"
       clip-path="url(#clipPath102)" />
    <path
       id="path103"
       d="m 0,0 c 0,3.314 2.536,5.664 5.992,5.664 2.007,0 3.624,-0.731 4.682,-2.055 L 8.715,1.836 C 8.029,2.661 7.19,3.112 6.148,3.112 4.357,3.112 3.112,1.867 3.112,0 c 0,-1.867 1.245,-3.112 3.036,-3.112 1.042,0 1.881,0.451 2.567,1.276 L 10.674,-3.61 C 9.616,-4.933 7.999,-5.664 5.992,-5.664 2.536,-5.664 0,-3.314 0,0"
       style="fill:#424a52;fill-opacity:1;fill-rule:nonzero;stroke:none"
       transform="matrix(1.3333333,0,0,-1.3333333,926.5184,597.1736)"
       clip-path="url(#clipPath104)" />
    <path
       id="path105"
       d="M 0,0 V -2.381 H -8.745 V 8.511 h 8.544 V 6.131 H -5.694 V 4.295 h 4.838 V 1.992 h -4.838 l 0,-1.992 z"
       style="fill:#424a52;fill-opacity:1;fill-rule:nonzero;stroke:none"
       transform="matrix(1.3333333,0,0,-1.3333333,969.1612,601.26067)"
       clip-path="url(#clipPath106)" />
  </g>
</svg>
